<svg width="350" height="27" viewBox="0 0 350 27" fill="none" xmlns="http://www.w3.org/2000/svg">
<path d="M2 24C17.265 15.9658 34.5246 9.7204 51 4.72224C53.6743 3.91095 61.3134 0.262323 63.9444 3.22224C67.5176 7.24202 68.955 12.7328 72.9444 16.7222C80.6539 24.4317 95.3463 25 105.667 25C126.934 25 146.67 17.0166 166.778 11C169.857 10.0787 174.156 8.22459 177.389 9.55558C179.778 10.5395 181.47 12.5758 184 13.3889C199.777 18.4602 218.349 12.629 233.889 10.0556C243.537 8.45776 253.51 6.86359 263.333 7.00002C267.07 7.05192 268.968 10.3616 272.444 11.3334C281.312 13.8125 292.781 11.6194 301.667 10.5556C317.172 8.69932 332.593 6.49845 348 4.00002" stroke="#FF8A00" stroke-width="3" stroke-linecap="round"/>
</svg>
